@startuml ToDoList

class Task{
    +id: int
    +owner: str
    +title: str
    +completed: bool
}

class ToDoList{
    -tasks: Task[]
    --
    get_tasks() -> Task[]
}

class ToDoListApp{
    +root: unknown
    +toDoList: ToDoList
    --
    create_gui() -> None
}

ToDoListApp "1" --* "1" ToDoList
ToDoList "1" --* "0..*" Task

@enduml